<svg width="369" height="30" viewBox="0 0 369 30" fill="none" xmlns="http://www.w3.org/2000/svg">
<path d="M35 26.7188V3.28125H5V26.7188H35ZM35 0C35.8854 0 36.6667 0.338542 37.3438 1.01562C38.0208 1.69271 38.3594 2.47396 38.3594 3.35938V26.6406C38.3594 27.526 38.0208 28.3073 37.3438 28.9844C36.6667 29.6615 35.8854 30 35 30H5C4.11458 30 3.33333 29.6615 2.65625 28.9844C1.97917 28.3073 1.64062 27.526 1.64062 26.6406V3.35938C1.64062 2.47396 1.97917 1.69271 2.65625 1.01562C3.33333 0.338542 4.11458 0 5 0H35ZM15 21.6406C13.6458 21.6406 12.474 21.1458 11.4844 20.1562C10.4948 19.1667 10 17.9948 10 16.6406C10 15.3906 10.4167 14.2969 11.25 13.3594C12.1354 12.3698 13.2031 11.8229 14.4531 11.7188H14.7656C15.8594 9.47917 17.6042 8.35938 20 8.35938C21.4583 8.35938 22.7344 8.85417 23.8281 9.84375C24.9219 10.7812 25.5729 11.9531 25.7812 13.3594H25.8594C27.0052 13.3594 27.9688 13.776 28.75 14.6094C29.5833 15.3906 30 16.3542 30 17.5C30 18.6458 29.5833 19.6354 28.75 20.4688C27.9688 21.25 27.0052 21.6406 25.8594 21.6406H15Z" fill="#1F2937"/>
<path d="M62.488 6.904C63.256 7 64.264 7.072 65.056 7.072C66.568 7.072 71.512 7.072 72.928 7.072C73.744 7.072 74.68 7 75.496 6.904V10C74.68 9.952 73.744 9.904 72.928 9.904C71.512 9.904 66.568 9.904 65.08 9.904C64.24 9.904 63.232 9.952 62.488 10V6.904ZM59.728 13.024C60.424 13.12 61.264 13.192 62.008 13.192C63.52 13.192 76.312 13.192 77.728 13.192C78.232 13.192 79.288 13.144 79.936 13.024V16.168C79.336 16.12 78.4 16.096 77.728 16.096C76.312 16.096 63.52 16.096 62.008 16.096C61.312 16.096 60.376 16.12 59.728 16.168V13.024ZM71.992 14.704C71.992 17.848 71.44 20.248 70.432 22.264C69.592 23.92 67.744 25.792 65.608 26.872L62.776 24.832C64.48 24.16 66.184 22.792 67.144 21.376C68.344 19.576 68.656 17.296 68.656 14.728L71.992 14.704ZM76.936 5.248C77.536 6.112 78.4 7.648 78.832 8.536L76.912 9.352C76.432 8.368 75.688 6.952 75.04 6.016L76.936 5.248ZM79.768 4.168C80.392 5.056 81.28 6.592 81.712 7.432L79.816 8.248C79.312 7.24 78.544 5.848 77.872 4.936L79.768 4.168ZM99.496 6.592C100.168 7.6 101.152 9.184 101.68 10.288L99.616 11.2C98.896 9.688 98.368 8.656 97.48 7.408L99.496 6.592ZM102.808 5.416C103.552 6.376 104.488 7.96 105.064 9.016L103 9.928C102.232 8.416 101.656 7.48 100.768 6.28L102.808 5.416ZM89.08 6.112C90.664 6.976 93.304 8.68 94.552 9.544L92.752 12.208C91.432 11.272 88.912 9.64 87.328 8.752L89.08 6.112ZM84.64 23.152C87.304 22.696 90.184 21.904 92.8 20.464C96.88 18.184 100.216 14.896 102.136 11.464L103.984 14.728C101.752 18.04 98.368 21.088 94.432 23.344C92.008 24.736 88.552 25.936 86.44 26.32L84.64 23.152ZM85.384 11.584C86.992 12.448 89.632 14.104 90.856 14.968L89.104 17.656C87.736 16.72 85.264 15.088 83.632 14.248L85.384 11.584ZM115.803 13.768C118.755 15.472 123.195 18.544 125.427 20.32L123.123 23.056C121.035 21.088 116.475 17.728 113.667 15.952L115.803 13.768ZM127.107 9.688C126.819 10.144 126.507 10.816 126.291 11.416C125.571 13.624 124.107 16.696 121.947 19.36C119.691 22.168 116.619 24.856 112.035 26.584L109.251 24.184C114.267 22.624 117.123 20.104 119.187 17.704C120.795 15.808 122.283 13.048 122.739 11.176H114.627L115.731 8.464H122.571C123.315 8.464 124.107 8.344 124.659 8.176L127.107 9.688ZM119.163 5.992C118.587 6.832 117.963 7.936 117.675 8.44C116.067 11.344 112.995 15.016 109.539 17.392L106.971 15.4C111.171 12.808 113.379 9.52 114.603 7.432C114.963 6.856 115.467 5.752 115.683 4.912L119.163 5.992ZM141.579 24.472C141.699 24.016 141.771 23.368 141.771 22.72C141.771 21.448 141.771 10.672 141.771 8.728C141.771 7.648 141.603 6.712 141.603 6.664H145.155C145.155 6.712 144.987 7.672 144.987 8.752C144.987 10.672 144.987 19.816 144.987 21.28C146.955 20.44 149.307 18.544 150.939 16.216L152.763 18.88C150.771 21.472 147.339 24.064 144.627 25.432C144.123 25.696 143.835 25.96 143.595 26.128L141.579 24.472ZM130.467 24.136C132.603 22.648 133.899 20.44 134.547 18.376C135.243 16.336 135.267 11.776 135.267 8.896C135.267 7.912 135.171 7.288 135.027 6.688H138.555C138.555 6.784 138.387 7.864 138.387 8.848C138.387 11.704 138.315 16.768 137.691 19.192C136.947 21.88 135.459 24.256 133.395 26.08L130.467 24.136ZM171.483 14.416C171.483 20.344 170.043 23.968 164.235 26.536L161.667 24.112C166.323 22.504 168.339 20.416 168.339 14.512V8.128C168.339 7.168 168.291 6.376 168.195 5.92H171.627C171.579 6.4 171.483 7.168 171.483 8.128V14.416ZM162.795 6.112C162.747 6.568 162.651 7.336 162.651 8.296V16.864C162.651 17.944 162.723 18.928 162.771 19.384H159.411C159.459 18.928 159.531 17.944 159.531 16.864V8.272C159.531 7.6 159.483 6.856 159.387 6.112H162.795ZM154.899 10.432C155.331 10.504 156.315 10.672 157.491 10.672H173.235C174.507 10.672 175.227 10.6 175.899 10.504V13.696C175.371 13.624 174.507 13.624 173.259 13.624H157.491C156.291 13.624 155.451 13.672 154.899 13.696V10.432ZM179.019 15.688C183.315 14.584 186.819 13.024 189.507 11.368C191.955 9.856 194.691 7.456 196.251 5.56L198.843 8.008C196.659 10.216 193.731 12.472 190.899 14.176C188.187 15.784 184.299 17.584 180.507 18.712L179.019 15.688ZM189.003 12.928L192.411 12.112V22.936C192.411 23.992 192.459 25.48 192.627 26.08H188.811C188.907 25.504 189.003 23.992 189.003 22.936V12.928ZM215.379 5.416C215.283 5.968 215.211 6.88 215.211 7.624C215.211 8.344 215.211 9.568 215.211 10.288H212.067C212.067 9.568 212.067 8.464 212.067 7.624C212.067 6.856 212.043 5.992 211.947 5.416H215.379ZM222.075 10.552C221.475 11.176 220.731 11.968 220.227 12.544C218.883 14.08 216.867 16.072 214.683 17.608C212.091 19.456 208.419 21.04 204.699 22.168L202.851 19.336C207.483 18.304 210.555 16.648 212.619 15.304C214.467 14.128 215.955 12.712 216.675 11.728C215.379 11.728 208.995 11.728 207.987 11.728C207.123 11.728 205.611 11.776 204.843 11.848V8.704C205.755 8.824 207.099 8.848 207.915 8.848C208.995 8.848 216.675 8.848 218.091 8.848C218.835 8.848 219.531 8.776 220.083 8.632L222.075 10.552ZM215.163 15.784C215.163 17.512 215.163 21.376 215.163 23.32C215.163 24.256 215.235 25.624 215.307 26.368H211.875C211.947 25.696 212.043 24.256 212.043 23.32C212.043 21.472 212.043 18.52 212.043 17.08L215.163 15.784ZM222.435 22.384C220.347 20.752 218.763 19.744 216.699 18.568L218.667 16.288C220.875 17.464 222.123 18.184 224.427 19.744L222.435 22.384ZM227.715 13.888C228.603 13.96 230.331 14.056 231.579 14.056C234.411 14.056 242.331 14.056 244.467 14.056C245.595 14.056 246.651 13.936 247.299 13.888V17.68C246.723 17.656 245.499 17.536 244.491 17.536C242.307 17.536 234.411 17.536 231.579 17.536C230.235 17.536 228.627 17.608 227.715 17.68V13.888ZM266.559 6.592C267.231 7.6 268.215 9.184 268.743 10.288L266.679 11.2C265.959 9.688 265.431 8.656 264.543 7.408L266.559 6.592ZM269.871 5.416C270.615 6.376 271.551 7.96 272.127 9.016L270.063 9.928C269.295 8.416 268.719 7.48 267.831 6.28L269.871 5.416ZM256.143 6.112C257.727 6.976 260.367 8.68 261.615 9.544L259.815 12.208C258.495 11.272 255.975 9.64 254.391 8.752L256.143 6.112ZM251.703 23.152C254.367 22.696 257.247 21.904 259.863 20.464C263.943 18.184 267.279 14.896 269.199 11.464L271.047 14.728C268.815 18.04 265.431 21.088 261.495 23.344C259.071 24.736 255.615 25.936 253.503 26.32L251.703 23.152ZM252.447 11.584C254.055 12.448 256.695 14.104 257.919 14.968L256.167 17.656C254.799 16.72 252.327 15.088 250.695 14.248L252.447 11.584ZM280.455 6.016C282.039 6.88 284.679 8.56 285.927 9.448L284.151 12.088C282.807 11.152 280.311 9.544 278.727 8.656L280.455 6.016ZM276.015 23.056C278.703 22.6 281.559 21.784 284.175 20.344C288.255 18.064 291.615 14.776 293.511 11.344L295.359 14.608C293.151 17.944 289.743 20.968 285.831 23.248C283.383 24.616 279.927 25.816 277.815 26.2L276.015 23.056ZM276.759 11.488C278.367 12.352 281.007 13.984 282.255 14.872L280.479 17.56C279.135 16.6 276.639 14.992 275.031 14.128L276.759 11.488ZM317.055 8.752C316.863 9.016 316.431 9.736 316.215 10.24C315.231 12.52 313.455 15.784 311.391 18.184C308.703 21.28 305.079 24.256 301.359 26.008L298.863 23.416C302.751 21.976 306.447 19.048 308.703 16.552C310.286 14.752 311.751 12.376 312.303 10.672C311.295 10.672 305.175 10.672 304.143 10.672C303.159 10.672 301.839 10.792 301.311 10.84V7.408C301.959 7.504 303.447 7.576 304.143 7.576C305.415 7.576 311.559 7.576 312.615 7.576C313.671 7.576 314.607 7.456 315.111 7.288L317.055 8.752ZM311.703 16.192C314.175 18.208 317.583 21.784 319.143 23.704L316.407 26.08C314.631 23.608 312.015 20.752 309.447 18.424L311.703 16.192ZM325.887 6.616C326.655 6.712 327.639 6.784 328.455 6.784C329.967 6.784 336.687 6.784 338.103 6.784C338.895 6.784 339.855 6.712 340.671 6.616V9.712C339.855 9.664 338.919 9.616 338.103 9.616C336.687 9.616 329.967 9.616 328.455 9.616C327.639 9.616 326.607 9.664 325.887 9.712V6.616ZM323.079 12.736C323.799 12.832 324.639 12.88 325.383 12.88C326.895 12.88 339.687 12.88 341.103 12.88C341.607 12.88 342.663 12.856 343.311 12.736V15.856C342.687 15.832 341.775 15.808 341.103 15.808C339.687 15.808 326.895 15.808 325.383 15.808C324.687 15.808 323.751 15.832 323.079 15.88V12.736ZM335.367 14.416C335.367 17.56 334.815 19.96 333.783 21.952C332.967 23.632 331.095 25.48 328.983 26.584L326.151 24.544C327.855 23.872 329.559 22.504 330.495 21.088C331.695 19.264 332.031 17.008 332.031 14.44L335.367 14.416ZM357.632 6.904C357.32 7.624 356.984 8.512 356.624 9.592C355.736 12.28 353.24 20.008 352.208 22.504L348.68 22.624C349.976 19.552 352.472 11.68 353.264 8.896C353.6 7.696 353.72 6.928 353.816 6.136L357.632 6.904ZM361.928 14.656C363.656 17.248 366.104 21.976 367.208 24.64L363.968 26.08C362.888 23.176 360.656 18.208 358.952 15.904L361.928 14.656ZM348.44 21.544C351.776 21.424 359.624 20.536 362.984 20.08L363.68 23.152C360.128 23.608 351.872 24.472 348.632 24.808C348.032 24.88 347.12 25 346.376 25.096L345.8 21.568C346.616 21.592 347.672 21.568 348.44 21.544Z" fill="#1F2937"/>
</svg>
